<svg xmlns="http://www.w3.org/2000/svg" width="71.566" height="72" viewBox="0 0 71.566 72">
  <g id="Group_116" data-name="Group 116" transform="translate(-556.217 -197.682)">
    <path id="Path_149" data-name="Path 149" d="M157.242,22.165a3.249,3.249,0,0,0-4.5-.877l-4.648,3.1C143.461,10.884,129.267,1,128.6.553a3.252,3.252,0,0,0-3.628,0c-.67.448-14.864,10.332-19.5,23.833l-4.648-3.1a3.245,3.245,0,0,0-4.5.877A30.313,30.313,0,0,0,91,39.253C91,57.189,107.052,72,126.783,72s35.783-14.811,35.783-32.747A30.311,30.311,0,0,0,157.242,22.165Z" transform="translate(465.217 197.682)" fill="#ffbf66"/>
    <path id="Path_150" data-name="Path 150" d="M291.783,39.253a30.311,30.311,0,0,0-5.324-17.088,3.249,3.249,0,0,0-4.5-.877l-4.648,3.1C272.678,10.884,258.484,1,257.814.553A3.253,3.253,0,0,0,256,0V72C275.731,72,291.783,57.189,291.783,39.253Z" transform="translate(336 197.682)" fill="#f93"/>
    <path id="Path_151" data-name="Path 151" d="M220.29,122.705a.01.01,0,0,1,0-.006L211.83,108.06a3.383,3.383,0,0,0-5.636,0l-8.463,14.648a13.013,13.013,0,1,0,22.558,0Z" transform="translate(382.988 126.709)" fill="#ffe666"/>
    <path id="Path_152" data-name="Path 152" d="M269.012,129.2a13.063,13.063,0,0,0-1.735-6.5.01.01,0,0,1,0-.006l-8.457-14.639A3.2,3.2,0,0,0,256,106.55v35.664A13.025,13.025,0,0,0,269.012,129.2Z" transform="translate(336 126.709)" fill="#ffbf66"/>
  </g>
</svg>
